<svg id="Component_19_1" data-name="Component 19 – 1" xmlns="http://www.w3.org/2000/svg" width="1011" height="637" viewBox="0 0 1011 637">
  <rect id="Rectangle_10" data-name="Rectangle 10" width="1011" height="637" rx="30" fill="rgba(15,19,53,0.79)"/>
  <circle id="Ellipse_8" data-name="Ellipse 8" cx="15" cy="15" r="15" transform="translate(887 44)" fill="#ff0922"/>
  <circle id="Ellipse_9" data-name="Ellipse 9" cx="15" cy="15" r="15" transform="translate(832 44)" fill="#0ffa74"/>
  <circle id="Ellipse_10" data-name="Ellipse 10" cx="15" cy="15" r="15" transform="translate(777 44)" fill="#fce200"/>
  <path id="Path_2" data-name="Path 2" d="M4.136,3.012H70.669L64.616,79.378,37.328,88.012,10.2,79.378,4.136,3.012ZM26.411,37.54l-.732-9.623,31.864.009.732-9.282-41.75-.009L18.734,47H47.645L46.617,59.13,37.4,61.977l-9.365-2.861-.6-7.471H19.173l1.045,14.767L37.4,71.547,54.438,66.44l2.36-28.9H26.411Z" transform="translate(761.132 180.988)" fill="orange"/>
  <path id="Path_3" data-name="Path 3" d="M3,3H69.4V73H3ZM63.959,56.3c-.483-3.193-2.457-5.876-8.307-8.381-2.036-1.007-4.3-1.7-4.976-3.321a3.637,3.637,0,0,1-.125-2.057c.417-1.882,2.534-2.446,4.194-1.925a4.582,4.582,0,0,1,2.7,2.629C60.3,41.278,60.3,41.278,62.3,39.968a12.669,12.669,0,0,0-1.619-2.279c-1.745-2.053-4.069-3.1-7.843-3.014l-1.948.261a8.868,8.868,0,0,0-4.733,2.932C43,41.632,43.913,48.193,47.731,50.911c3.774,2.975,9.3,3.628,10,6.428.664,3.414-2.405,4.507-5.441,4.114-2.239-.529-3.486-1.707-4.855-3.9l-5.061,3.064a11.8,11.8,0,0,0,2.239,3.236c4.814,5.118,16.851,4.857,19.009-2.932a10.423,10.423,0,0,0,.207-4.811l.125.191ZM39.107,35.173H32.887c0,5.651-.026,11.27-.026,16.932,0,3.593.173,6.891-.384,7.906-.911,2.011-3.268,1.754-4.334,1.4a5.485,5.485,0,0,1-2.3-2.493,2.46,2.46,0,0,0-.35-.568l-5.046,3.282a10.136,10.136,0,0,0,3.667,4.422,11.615,11.615,0,0,0,8.868,1.186,7.836,7.836,0,0,0,5.01-4.118c1.417-2.711,1.114-6.039,1.1-9.757.03-5.993,0-11.989,0-18.025l.011-.163Z" transform="translate(848 280.5)" fill="#ff0"/>
  <text id="skills_Java_Html_PHP_Python_let_list_document.querySelector_myList_skills.foreach_skill_let_listItem_document.createElement_li_listItem.textConten" data-name="let skills = [
                &apos;Java&apos;,
                &apos;Html&apos;,
                &apos;PHP&apos;,
                &apos;Python&apos;
];

let list = document.querySelector(&quot;#myList&quot;);

skills.foreach(skill =&gt; {
    let listItem = document.createElement(&quot;li&quot;);
    listItem.textConten" transform="translate(119 133)" fill="#15cc4c" font-size="22" font-family="SegoeUI-Semibold, Segoe UI" font-weight="600"><tspan x="0" y="0">let skills = [</tspan><tspan x="0" y="30" xml:space="preserve">                &apos;Java&apos;,</tspan><tspan x="0" y="60" xml:space="preserve">                &apos;Html&apos;,</tspan><tspan x="0" y="90" xml:space="preserve">                &apos;PHP&apos;,</tspan><tspan x="0" y="120" xml:space="preserve">                &apos;Python&apos;</tspan><tspan x="0" y="150">];</tspan><tspan x="0" y="180"></tspan><tspan x="0" y="210">let list = document.querySelector(&quot;#myList&quot;);</tspan><tspan x="0" y="240"></tspan><tspan x="0" y="270">skills.foreach(skill =&gt; {</tspan><tspan x="0" y="300" xml:space="preserve">    let listItem = document.createElement(&quot;li&quot;);</tspan><tspan x="0" y="330" xml:space="preserve">    listItem.textContent = skill;</tspan><tspan x="0" y="360" xml:space="preserve">    list.appendChild(listItem);</tspan><tspan x="0" y="390">});</tspan></text>
  <path id="Path_10" data-name="Path 10" d="M98.45,12.563,77.85,2.5a6.765,6.765,0,0,0-2.4-.5h-.4a5.877,5.877,0,0,0-3.6,1.207l-.7.6L31.35,39.978,14.2,27.151a4.133,4.133,0,0,0-2.7-.855,4.382,4.382,0,0,0-2.65.855l-5.5,5.03A4.035,4.035,0,0,0,2,35.249a4.237,4.237,0,0,0,1.35,3.119L18.35,52l-15,13.682a4.243,4.243,0,0,0,0,6.187l5.5,5.03a4.434,4.434,0,0,0,3,1.107,4.633,4.633,0,0,0,2.35-.855L31.35,64.022l39.4,36.167A5.985,5.985,0,0,0,74.55,102h.85a4.976,4.976,0,0,0,2.45-.6l20.6-10.06A6.29,6.29,0,0,0,102,85.8V18.247a6.341,6.341,0,0,0-3.55-5.684ZM77,74.786,47,52,77,29.213Z" transform="translate(746.534 366)" fill="#2478f3"/>
  <path id="Path_11" data-name="Path 11" d="M80.489,38.435,45.561,3.508a5.168,5.168,0,0,0-7.293,0l-7.237,7.246,9.2,9.2a6.129,6.129,0,0,1,7.757,7.8l8.857,8.871a6.121,6.121,0,1,1-3.68,3.477l-8.3-8.254V53.607a6.071,6.071,0,0,1,1.628,1.16,6.149,6.149,0,1,1-8.7.008,6.286,6.286,0,0,1,2.016-1.356V31.453a6.118,6.118,0,0,1-3.32-8.034l-9.041-9.087L3.5,38.267a5.188,5.188,0,0,0,0,7.3L38.428,80.491a5.144,5.144,0,0,0,7.285,0L80.477,45.725a5.138,5.138,0,0,0,.012-7.29" transform="translate(665 276.497)" fill="#c94100"/>
  <text id="code.js" transform="translate(54 68)" fill="#fff" font-size="20" font-family="SegoeUIBlack, Segoe UI"><tspan x="0" y="0">code.js</tspan></text>
  <text id="_ers" data-name="#ers" transform="translate(896 605)" fill="#15cc4c" font-size="20" font-family="SegoeUIBlack, Segoe UI"><tspan x="0" y="0">#ers</tspan></text>
</svg>
