<svg id="Component_13_1" data-name="Component 13 – 1" xmlns="http://www.w3.org/2000/svg" width="1712.402" height="1261.594" viewBox="0 0 1712.402 1261.594">
  <g id="Component_5_1" data-name="Component 5 – 1" transform="translate(626.631 194.15)">
    <path id="Rectangle_4" data-name="Rectangle 4" d="M33.346,2.408l894.838,64.61a22.82,22.82,0,0,1,9.336,2.79,26.6,26.6,0,0,1,7.6,6.308,29.928,29.928,0,0,1,5.11,8.9A30.819,30.819,0,0,1,952.1,95.6v516.5a30.309,30.309,0,0,1-1.871,10.521,28.7,28.7,0,0,1-5.11,8.734,25.376,25.376,0,0,1-7.6,6.061,22.253,22.253,0,0,1-9.336,2.487L33.346,675.425a33.812,33.812,0,0,1-12.936-1.983,31.867,31.867,0,0,1-10.605-6.4,30.226,30.226,0,0,1-7.171-9.853A29.769,29.769,0,0,1,0,644.877V31.872A29.185,29.185,0,0,1,2.634,19.648a28.87,28.87,0,0,1,7.171-9.62A30.556,30.556,0,0,1,20.41,3.97,33.374,33.374,0,0,1,33.346,2.408Z" fill="rgba(55,102,246,0.25)"/>
    <path id="Ellipse_2" data-name="Ellipse 2" d="M16.308,1.08a15.47,15.47,0,0,1,6.32,1.841,17.865,17.865,0,0,1,5.15,4.214A19.965,19.965,0,0,1,31.244,13.1a20.523,20.523,0,0,1,1.27,7.112,19.222,19.222,0,0,1-1.27,6.953A16.934,16.934,0,0,1,27.778,32.7a14.947,14.947,0,0,1-5.15,3.568,14.275,14.275,0,0,1-6.32,1.048,15.441,15.441,0,0,1-6.336-1.8,17.832,17.832,0,0,1-5.185-4.2,19.95,19.95,0,0,1-3.5-5.987A20.523,20.523,0,0,1,0,18.177a19.215,19.215,0,0,1,1.285-6.993,16.912,16.912,0,0,1,3.5-5.548,14.928,14.928,0,0,1,5.185-3.55A14.28,14.28,0,0,1,16.308,1.08Z" transform="translate(873.953 94.003)" fill="#ff0922"/>
    <path id="Ellipse_3" data-name="Ellipse 3" d="M17.054,1.13a16.468,16.468,0,0,1,6.608,1.892,18.639,18.639,0,0,1,5.384,4.317,20.351,20.351,0,0,1,3.624,6.108A20.589,20.589,0,0,1,34,20.721a19.258,19.258,0,0,1-1.328,7.108,17.234,17.234,0,0,1-3.624,5.654,15.612,15.612,0,0,1-5.384,3.642,15.218,15.218,0,0,1-6.608,1.063,16.439,16.439,0,0,1-6.625-1.85,18.61,18.61,0,0,1-5.422-4.3,20.339,20.339,0,0,1-3.662-6.128A20.589,20.589,0,0,1,0,18.589a19.251,19.251,0,0,1,1.344-7.149A17.215,17.215,0,0,1,5.006,5.771a15.6,15.6,0,0,1,5.422-3.622A15.226,15.226,0,0,1,17.054,1.13Z" transform="translate(756.84 86.247)" fill="#fce200"/>
    <path id="Ellipse_4" data-name="Ellipse 4" d="M16.675,1.1A15.958,15.958,0,0,1,23.137,2.97,18.245,18.245,0,0,1,28.4,7.235a20.154,20.154,0,0,1,3.544,6.038,20.555,20.555,0,0,1,1.3,7.192,19.24,19.24,0,0,1-1.3,7.03A17.081,17.081,0,0,1,28.4,33.089a15.273,15.273,0,0,1-5.265,3.6,14.736,14.736,0,0,1-6.462,1.056A15.929,15.929,0,0,1,10.2,35.924a18.213,18.213,0,0,1-5.3-4.251,20.141,20.141,0,0,1-3.581-6.057A20.555,20.555,0,0,1,0,18.381a19.232,19.232,0,0,1,1.314-7.07A17.061,17.061,0,0,1,4.9,5.7a15.256,15.256,0,0,1,5.3-3.586A14.743,14.743,0,0,1,16.675,1.1Z" transform="translate(816.052 90.169)" fill="#0ffa74"/>
  </g>
  <g id="Component_1_1" data-name="Component 1 – 1" transform="translate(456.558 286.729)">
    <path id="Rectangle_1" data-name="Rectangle 1" d="M56.2,3.11l963.172,53.3a37.545,37.545,0,0,1,15.384,4.286,42.591,42.591,0,0,1,12.495,10.027A47.282,47.282,0,0,1,1055.638,85a48.909,48.909,0,0,1,3.07,17.087V667.613a49.311,49.311,0,0,1-3.07,17.136,48.261,48.261,0,0,1-8.391,14.412,43.579,43.579,0,0,1-12.495,10.224,38.014,38.014,0,0,1-15.384,4.529L56.2,782.442a57.435,57.435,0,0,1-21.753-2.55,51.851,51.851,0,0,1-17.878-9.946A47.622,47.622,0,0,1,4.453,754.125,46.95,46.95,0,0,1,0,734.011V52.429A47.417,47.417,0,0,1,4.453,32.245,48.707,48.707,0,0,1,16.566,16.232,52.9,52.9,0,0,1,34.444,6,57.771,57.771,0,0,1,56.2,3.11Z" fill="#1b3f85"/>
    <path id="Rectangle_2" data-name="Rectangle 2" d="M34.78,1.668,965.044,46.283a23.54,23.54,0,0,1,9.674,2.618,26.564,26.564,0,0,1,7.874,6.241,29.443,29.443,0,0,1,5.3,8.938,30.51,30.51,0,0,1,1.939,10.727V600.554a30.766,30.766,0,0,1-1.939,10.758,30.061,30.061,0,0,1-5.3,9.023,27.184,27.184,0,0,1-7.874,6.367,23.83,23.83,0,0,1-9.674,2.773L34.78,688.96a35.585,35.585,0,0,1-13.491-1.687,32.32,32.32,0,0,1-11.061-6.262,29.83,29.83,0,0,1-7.48-9.876A29.408,29.408,0,0,1,0,658.633V32.552A29.7,29.7,0,0,1,2.747,20a30.515,30.515,0,0,1,7.48-10A32.99,32.99,0,0,1,21.289,3.57,35.809,35.809,0,0,1,34.78,1.668Z" transform="translate(41.078 47.846)" fill="#232b43"/>
    <g id="Ellipse_1" data-name="Ellipse 1" transform="translate(568.882 43.389)" fill="#fff">
      <path d="M9.735.518a9.857,9.857,0,0,1,3.78.979A10.454,10.454,0,0,1,16.6,3.781a10.653,10.653,0,0,1,2.077,3.253,10.336,10.336,0,0,1,.761,3.889,9.751,9.751,0,0,1-.761,3.811,9.258,9.258,0,0,1-2.077,3.04,9.067,9.067,0,0,1-3.083,1.967,9.276,9.276,0,0,1-3.78.59,9.851,9.851,0,0,1-3.785-.967,10.451,10.451,0,0,1-3.095-2.28A10.653,10.653,0,0,1,.766,13.825,10.337,10.337,0,0,1,0,9.923,9.749,9.749,0,0,1,.766,6.1,9.256,9.256,0,0,1,2.855,3.057,9.067,9.067,0,0,1,5.95,1.1,9.28,9.28,0,0,1,9.735.518Z" stroke="none"/>
      <path d="M 9.734734535217285 19.34013557434082 C 10.9401388168335 19.40027236938477 12.08888149261475 19.20771789550781 13.13382816314697 18.80839920043945 C 14.17838764190674 18.40922737121582 15.11930847167969 17.80341911315918 15.9095401763916 17.03677940368652 C 16.69955062866211 16.27035903930664 17.33904075622559 15.34311866760254 17.78099632263184 14.30074787139893 C 18.22288131713867 13.25854110717773 18.46735382080078 12.10109233856201 18.46735382080078 10.87396621704102 C 18.46735382080078 9.64684009552002 18.22288131713867 8.464223861694336 17.78099632263184 7.376524925231934 C 17.33904075622559 6.288655757904053 16.69955062866211 5.29558277130127 15.9095401763916 4.447832107543945 C 15.11930847167969 3.599843740463257 14.17838764190674 2.897168397903442 13.13382816314697 2.390464305877686 C 12.08888149261475 1.883572340011597 10.9401388168335 1.572759389877319 9.734734535217285 1.50880765914917 C 8.528812408447266 1.444828510284424 7.37861967086792 1.63388204574585 6.33153772354126 2.030421018600464 C 5.284065246582031 2.427106618881226 4.339855670928955 3.031402826309204 3.546374559402466 3.797646284103394 C 2.7526695728302 4.564105033874512 2.109860897064209 5.492519378662109 1.665443897247314 6.537099838256836 C 1.220956683158875 7.58184289932251 0.9749857187271118 8.742641448974609 0.9749857187271118 9.973579406738281 C 0.9749857187271118 11.20451831817627 1.220956683158875 12.39063739776611 1.665443897247314 13.48114013671875 C 2.109860897064209 14.57146835327148 2.7526695728302 15.56605911254883 3.546374559402466 16.41422462463379 C 4.339855670928955 17.26215553283691 5.284065246582031 17.96365356445312 6.33153772354126 18.46817398071289 C 7.37861967086792 18.97250556945801 8.528812408447266 19.27996635437012 9.734734535217285 19.34013557434082 M 9.734734535217285 20.33076477050781 C 8.392644882202148 20.26403999328613 7.11348819732666 19.92311477661133 5.949526309967041 19.36356925964355 C 4.785084247589111 18.80379104614258 3.736026763916016 18.02525520324707 2.854715585708618 17.08368682861328 C 1.973128795623779 16.1418285369873 1.259497761726379 15.03695106506348 0.7662199735641479 13.82494258880615 C 0.2728562355041504 12.61272525787354 0 11.29352951049805 0 9.923393249511719 C 0 8.553257942199707 0.2728562355041504 7.262153148651123 0.7662199735641479 6.100723743438721 C 1.259497761726379 4.939498424530029 1.973128795623779 3.908084630966187 2.854715585708618 3.056981086730957 C 3.736026763916016 2.206142902374268 4.785084247589111 1.535603404045105 5.949526309967041 1.095700263977051 C 7.11348819732666 0.6559785008430481 8.392644882202148 0.4467392563819885 9.734734535217285 0.5181785225868225 C 11.07618618011475 0.5895837545394897 12.35354614257812 0.9346484541893005 13.51486778259277 1.497357726097107 C 14.67570972442627 2.059835195541382 15.72070598602295 2.839824199676514 16.59800720214844 3.781462907791138 C 17.47503280639648 4.722808361053467 18.18457412719727 5.825815200805664 18.67481231689453 7.034780502319336 C 19.16496849060059 8.243536949157715 19.43597412109375 9.558403015136719 19.43597412109375 10.92382335662842 C 19.43597412109375 12.28924465179443 19.16496849060059 13.57621288299561 18.67481231689453 14.7345085144043 C 18.18457412719727 15.89300727844238 17.47503280639648 16.92296600341797 16.59800720214844 17.77402687072754 C 15.72070598602295 18.62535095214844 14.67570972442627 19.29776000976562 13.51486778259277 19.7407341003418 C 12.35354614257812 20.18389129638672 11.07618618011475 20.3974552154541 9.734734535217285 20.33076477050781 Z" stroke="none" fill="#707070"/>
    </g>
    <path id="_ers_" data-name="&lt;ers/&gt;" d="M15.163,111.235V96.215l62.3-25.82V88.474L33.406,103.582v.25l44.056,14.114v18.079Zm105.755,1.439q.674,4.046,4.652,6.294t10.5,2.15q9.065-.132,17.133-3.732v16.5q-9.4,3.953-22.867,4.188-16.411.287-25.576-7.995-4.6-4.153-6.895-9.935t-2.3-13.186q0-10.184,4.045-18T111.561,76.7q7.887-4.448,17.372-4.5,9.7-.058,16.569,3.695,6.855,3.743,10.4,10.558t3.538,15.961v9.766ZM136.559,98.8q0-5.425-1.936-8.119t-5.812-2.66q-3.24.028-5.442,3.027t-2.572,7.92Zm77.768-3.547q-1.423-.651-3.856-1.171t-4.04-.5q-6.282.062-9.427,3.8t-3.145,11.131v26.936l-25.552.44v-62.4l25.552-.159v10.92l.239,0q2.328-5.9,6.62-8.991t9.99-3.12q2.077-.013,3.618.7Zm56.051,18.522q0,10.413-7.71,16.255-7.731,5.858-21.614,6.1-4.055.071-10.03-.668t-9.77-1.883V115.532q11.154,4.908,18.625,4.8,7.334-.108,7.334-4.014,0-1.623-1.7-2.651t-8.926-3.4q-8.01-2.49-11.669-6.728T221.254,92.41q0-9.6,7.471-15.236,7.451-5.622,20.889-5.7,7.834-.047,16.577,2.237V90.9q-3.669-1.583-8.043-2.623t-7.363-1.015q-2.459.022-3.923.876T245.4,90.493q0,1.743,1.583,2.81t6.321,2.519q9.164,2.662,13.124,6.931T270.378,113.779Zm20.956,34.177-21.712.429L310.53,48.234l21.4-.039Zm52.444-17.632V112.9l39.33-14.2V98.47l-39.33-13.385V67.662l55.515,23.554v13.973Z" transform="translate(365.83 306.031)" fill="#fff"/>
  </g>
  <g id="Component_11_1" data-name="Component 11 – 1" transform="translate(217.308 122.626)">
    <path id="PHP" d="M30.157,97.074v27.233l-19.97-1.193v-79.3l31.229,2.249q8.293.6,14.5,2.606T66.264,54.1q4.136,3.422,6.2,8.263T74.533,73.47q0,5.915-2.366,10.543t-7.1,7.975Q55.572,98.7,39.634,97.68Zm0-38.148V83.567l7.818.517q7.917.523,11.87-2.317t3.954-9.05q0-6.073-3.954-9.382t-11.87-3.862ZM161.53,132.154l-19.22-1.148V99.373l-35.543-2.3v31.811l-19.5-1.164V49.368l19.5,1.4V81.929l35.543,2.386V53.332l19.22,1.384ZM199.8,107.925v26.514l-18.928-1.131V56.11l29.6,2.132q7.862.566,13.75,2.511t9.809,5.269q3.921,3.325,5.88,8.035t1.959,10.81q0,11.515-8.976,18.048-9,6.552-24.112,5.585Zm0-37.141V94.775l7.411.49q7.505.5,11.253-2.276t3.748-8.819q0-5.913-3.748-9.128T207.207,71.3Z" fill="#483d8b"/>
    <g id="Line_1" data-name="Line 1" transform="translate(10.177 122.547)" fill="none">
      <path d="M0,1.133l231.435,13.8" stroke="none"/>
      <path d="M 231.4350128173828 16.02763938903809 L 0 2.265041828155518 L 0 0 L 231.4350128173828 13.84391212463379 L 231.4350128173828 16.02763938903809 Z" stroke="none" fill="#483d8b"/>
    </g>
    <g id="Line_4" data-name="Line 4" transform="translate(10.177 63.09)" fill="none">
      <path d="M0,1.133,231.435,17.07" stroke="none"/>
      <path d="M 231.4350128173828 18.16216087341309 L 0 2.265041828155518 L 0 0 L 231.4350128173828 15.97843551635742 L 231.4350128173828 18.16216087341309 Z" stroke="none" fill="#483d8b"/>
    </g>
    <g id="Line_5" data-name="Line 5" transform="translate(10.177 82.342)" fill="none">
      <path d="M0,1.133,231.435,16.379" stroke="none"/>
      <path d="M 231.4350128173828 17.47098350524902 L 0 2.265041828155518 L 0 0 L 231.4350128173828 15.28725624084473 L 231.4350128173828 17.47098350524902 Z" stroke="none" fill="#483d8b"/>
    </g>
    <g id="Line_6" data-name="Line 6" transform="translate(10.177 102.162)" fill="none">
      <path d="M0,1.133,231.435,15.668" stroke="none"/>
      <path d="M 231.4350128173828 16.75947570800781 L 0 2.265041828155518 L 0 0 L 231.4350128173828 14.57574844360352 L 231.4350128173828 16.75947570800781 Z" stroke="none" fill="#483d8b"/>
    </g>
    <g id="Line_7" data-name="Line 7" transform="translate(10.177 43.837)" fill="none">
      <path d="M0,1.133,231.435,17.761" stroke="none"/>
      <path d="M 231.4350128173828 18.85333824157715 L 0 2.265041828155518 L 0 0 L 231.4350128173828 16.66961288452148 L 231.4350128173828 18.85333824157715 Z" stroke="none" fill="#483d8b"/>
    </g>
  </g>
  <g id="Component_6_1" data-name="Component 6 – 1" transform="translate(1525.818 580.148)">
    <g id="Line_1-2" data-name="Line 1" transform="translate(1.215 95.544)" fill="none">
      <path d="M0,2.576,184.8.872" stroke="none"/>
      <path d="M 184.8043975830078 1.743543863296509 L 0 3.48045802116394 L 0 1.672014951705933 L 184.8043975830078 3.242347156628966e-05 L 184.8043975830078 1.743543863296509 Z" stroke="none" fill="red"/>
    </g>
    <g id="Line_4-2" data-name="Line 4" transform="translate(1.215 49.292)" fill="none">
      <path d="M0,.9,184.8.92" stroke="none"/>
      <path d="M 184.8043975830078 1.792210698127747 L 0 1.808442950248718 L 0 0 L 184.8043975830078 0.04869932681322098 L 184.8043975830078 1.792210698127747 Z" stroke="none" fill="red"/>
    </g>
    <g id="Line_5-2" data-name="Line 5" transform="translate(1.215 64.161)" fill="none">
      <path d="M0,1.407,184.8.872" stroke="none"/>
      <path d="M 184.8043975830078 1.74351167678833 L 0 2.311659097671509 L 0 0.503216028213501 L 184.8043975830078 2.078427598917187e-07 L 184.8043975830078 1.74351167678833 Z" stroke="none" fill="red"/>
    </g>
    <g id="Line_6-2" data-name="Line 6" transform="translate(1.215 79.852)" fill="none">
      <path d="M0,1.992,184.8.872" stroke="none"/>
      <path d="M 184.8043975830078 1.743469953536987 L 0 2.896003246307373 L 0 1.087560296058655 L 184.8043975830078 -4.156855356995948e-05 L 184.8043975830078 1.743469953536987 Z" stroke="none" fill="red"/>
    </g>
    <g id="Line_7-2" data-name="Line 7" transform="translate(1.215 33.016)" fill="none">
      <path d="M0,.9l184.8.6" stroke="none"/>
      <path d="M 184.8043975830078 2.376593351364136 L 0 1.808442950248718 L 0 0 L 184.8043975830078 0.6330820322036743 L 184.8043975830078 2.376593351364136 Z" stroke="none" fill="red"/>
    </g>
    <path id="JAVA" d="M29.964,72.423q0,12.645-5.224,19.4T9.554,98.694q-4.457.042-8.249-1.645V83.671Q4.584,86.43,8.648,86.4q4.35-.03,6.524-3.653T17.345,71.9v-37.5l12.619.04ZM88.475,96.871l-13.484.123L71.071,83.137l-19.695.126L47.457,97.245l-13.626.124,20.3-62.848,14.789.047ZM68.222,72.348l-5.938-21q-.656-2.356-.927-5.629h-.309q-.193,2.749-.966,5.455L54.049,72.408ZM136.16,34.782,117.572,96.6l-13.861.127L85.111,34.62l13.278.042,11.353,43.17q.909,3.5,1.1,6.173l.227,0q.265-2.9,1.174-6.358l11.216-42.9Zm49.258,61.2-12.972.118-3.771-13.592-18.944.121-3.769,13.712-13.1.12,19.518-61.632,14.225.045ZM165.935,71.93l-5.711-20.6q-.631-2.311-.891-5.52h-.3q-.186,2.7-.929,5.35l-5.8,20.828Z" fill="red"/>
  </g>
  <g id="Component_7_1" data-name="Component 7 – 1" transform="translate(1391.266 990.298)">
    <path id="Kotlin" d="M55.876,111.564l-16.688,1.5L21.981,86.5q-.5-.77-1.57-3.433l-.207.017v31.69L6.821,115.985v-64.9L20.2,50.044V80.651l.207-.017q.5-1.305,1.653-3.748l16.3-28.255L54.123,47.4,33.644,79.8Zm23.3-.984q-10.365.936-16.315-4.952T56.9,88.7q0-11.386,6.187-18.329,6.173-6.926,16.657-7.777,10.282-.834,16.11,5.078t5.815,16.388q0,11.333-6,18.445Q89.66,109.633,79.175,110.58ZM79.5,73.416q-4.529.377-7.04,4.027T69.945,87.4q0,6.593,2.409,9.679t7.224,2.662q4.58-.4,6.867-3.98t2.288-10.328q0-6.4-2.308-9.4T79.5,73.416Zm54.968,30.536q-2.77,1.884-8.359,2.389-6.64.6-9.964-2.95t-3.324-11.239v-20.8l-6.63.553V61.559l6.63-.539v-9.8l12.534-4.977V60l9.114-.741v10.29l-9.114.759V88.624q0,7.079,5.036,6.634,1.98-.175,4.077-1.641Zm19.466-1.224L141.5,103.848V36.989l12.435-.959ZM170.6,49.216q-3.122.25-5.114-1.676t-1.994-4.957q0-3.118,1.994-5.249t5.114-2.37q3.157-.244,5.123,1.576t1.965,4.927q0,3.153-1.965,5.324T170.6,49.216Zm6.077,51.462-12.325,1.111V56.828l12.325-1Zm48.367-4.359L212.99,97.4V72.66q0-5.177-1.632-7.628t-4.9-2.179q-3.155.263-5.2,3.179t-2.043,7.148V98.646l-12.216,1.1V54.986l12.216-.994v7.064l.154-.013q4.354-8.507,12.656-9.181,6.511-.528,9.762,3.782t3.251,13.471Z" fill="#8102ff"/>
    <g id="Line_1-3" data-name="Line 1" transform="translate(7.027 95.453)" fill="none">
      <path d="M0,20.513,217.754.889" stroke="none"/>
      <path d="M 217.7540130615234 1.777162313461304 L 0 21.4398021697998 L 0 19.58612632751465 L 217.7540130615234 -5.08451694258838e-06 L 217.7540130615234 1.777162313461304 Z" stroke="none" fill="#8102ff"/>
    </g>
    <g id="Line_4-3" data-name="Line 4" transform="translate(7.453 49.66)" fill="none">
      <path d="M0,18.54,217.72.889" stroke="none"/>
      <path d="M 217.7196350097656 1.777018308639526 L 0 19.46678161621094 L 0 17.61325454711914 L 217.7196350097656 -1.186295685329242e-05 L 217.7196350097656 1.777018308639526 Z" stroke="none" fill="#8102ff"/>
    </g>
    <g id="Line_5-3" data-name="Line 5" transform="translate(7.453 65.653)" fill="none">
      <path d="M0,19.229,217.72.889" stroke="none"/>
      <path d="M 217.7196350097656 1.777059078216553 L 0 20.15529251098633 L 0 18.30176544189453 L 217.7196350097656 2.88100382022094e-05 L 217.7196350097656 1.777059078216553 Z" stroke="none" fill="#8102ff"/>
    </g>
    <g id="Line_6-3" data-name="Line 6" transform="translate(7.453 81.646)" fill="none">
      <path d="M0,19.917,217.72.888" stroke="none"/>
      <path d="M 217.7196350097656 1.776991248130798 L 0 20.84368896484375 L 0 18.99016189575195 L 217.7196350097656 -3.897828719345853e-05 L 217.7196350097656 1.776991248130798 Z" stroke="none" fill="#8102ff"/>
    </g>
    <g id="Line_7-3" data-name="Line 7" transform="translate(7.027 33.697)" fill="none">
      <path d="M0,17.854,217.754.889" stroke="none"/>
      <path d="M 217.7540130615234 1.777165770530701 L 0 18.7811393737793 L 0 16.92746353149414 L 217.7540130615234 -1.694838942967181e-06 L 217.7540130615234 1.777165770530701 Z" stroke="none" fill="#8102ff"/>
    </g>
  </g>
  <path id="Rectangle_4-2" data-name="Rectangle 4" d="M40.592,25.6,823.434.982a31.149,31.149,0,0,1,12.191,2.035,29.94,29.94,0,0,1,9.918,6.267,29.328,29.328,0,0,1,6.668,9.533,29.631,29.631,0,0,1,2.441,11.854V296.479a31.753,31.753,0,0,1-2.441,12.144,34.534,34.534,0,0,1-6.668,10.327,35.312,35.312,0,0,1-9.918,7.449,33.611,33.611,0,0,1-12.191,3.487L40.592,398.512a44.259,44.259,0,0,1-15.741-1.374,37.315,37.315,0,0,1-12.91-6.4,31.3,31.3,0,0,1-8.733-10.423A29.251,29.251,0,0,1,0,366.9V62.05a31.644,31.644,0,0,1,3.208-13.8A37.162,37.162,0,0,1,11.94,36.784a43.348,43.348,0,0,1,12.91-7.936A46.578,46.578,0,0,1,40.592,25.6Z" transform="translate(0 813.796)" fill="rgba(55,102,246,0.25)"/>
  <path id="Ellipse_2-2" data-name="Ellipse 2" d="M21.356.793a21.24,21.24,0,0,1,8.271,1.317,20.2,20.2,0,0,1,6.737,4.178,19.559,19.559,0,0,1,6.194,14.368A20.7,20.7,0,0,1,40.9,28.767a21.944,21.944,0,0,1-4.534,6.765,22.59,22.59,0,0,1-6.737,4.729,22.258,22.258,0,0,1-8.271,1.994,21.261,21.261,0,0,1-8.294-1.263,20.219,20.219,0,0,1-6.791-4.154A19.558,19.558,0,0,1,0,22.4a20.7,20.7,0,0,1,1.684-8.165A21.953,21.953,0,0,1,6.271,7.445a22.592,22.592,0,0,1,6.791-4.71A22.246,22.246,0,0,1,21.356.793Z" transform="translate(752.493 850.786)" fill="#ff0922"/>
  <path id="Ellipse_3-2" data-name="Ellipse 3" d="M22.479.835a22.868,22.868,0,0,1,8.7,1.343,21.329,21.329,0,0,1,7.09,4.279,20.085,20.085,0,0,1,4.771,6.554,19.787,19.787,0,0,1,1.748,8.179,20.786,20.786,0,0,1-1.748,8.322,22.517,22.517,0,0,1-4.771,6.944A23.908,23.908,0,0,1,22.479,43.37a22.9,22.9,0,0,1-8.73-1.286A21.354,21.354,0,0,1,6.6,37.831a20.094,20.094,0,0,1-4.829-6.574A19.785,19.785,0,0,1,0,23.023a20.791,20.791,0,0,1,1.773-8.379A22.533,22.533,0,0,1,6.6,7.675,23.911,23.911,0,0,1,22.479.835Z" transform="translate(598.558 856.462)" fill="#fce200"/>
  <path id="Ellipse_4-2" data-name="Ellipse 4" d="M21.907.814a22.033,22.033,0,0,1,8.484,1.33A20.754,20.754,0,0,1,37.3,6.372a19.682,19.682,0,0,1,6.353,14.548,20.741,20.741,0,0,1-1.7,8.215,22.225,22.225,0,0,1-4.65,6.853,23.149,23.149,0,0,1-15.394,6.818A22.057,22.057,0,0,1,13.4,41.531a20.773,20.773,0,0,1-6.966-4.2A19.683,19.683,0,0,1,0,22.706a20.745,20.745,0,0,1,1.727-8.271A22.237,22.237,0,0,1,6.433,7.558,23.148,23.148,0,0,1,21.907.814Z" transform="translate(676.513 853.588)" fill="#0ffa74"/>
  <g id="Component_12_1" data-name="Component 12 – 1" transform="translate(131.451 969.238)">
    <g id="Line_8" data-name="Line 8" transform="translate(0 3.38)" fill="none">
      <path d="M0,19.088,266.069,4.411" stroke="none"/>
      <path d="M 266.0690002441406 8.821212768554688 L 0 23.68515968322754 L 0 14.49002552032471 L 266.0690002441406 1.472196345275734e-05 L 266.0690002441406 8.821212768554688 Z" stroke="none" fill="rgba(44,247,92,0.87)"/>
    </g>
    <g id="Line_9" data-name="Line 9" transform="translate(0 24.541)" fill="none">
      <path d="M0,26.662,374.916,4.334" stroke="none"/>
      <path d="M 374.9164733886719 8.66816520690918 L 3.718254409880092e-14 31.25947189331055 L 3.718254409880092e-14 22.0643367767334 L 374.9164733886719 -5.786663314211182e-05 L 374.9164733886719 8.66816520690918 Z" stroke="none" fill="rgba(44,247,92,0.87)"/>
    </g>
    <g id="Line_10" data-name="Line 10" transform="translate(0 49.581)" fill="none">
      <path d="M0,30.357,407.3,4.311" stroke="none"/>
      <path d="M 407.2985534667969 8.622801780700684 L 0 34.95416641235352 L 0 25.75903129577637 L 407.2985534667969 8.840004738885909e-05 L 407.2985534667969 8.622801780700684 Z" stroke="none" fill="rgba(44,247,92,0.87)"/>
    </g>
  </g>
  <g id="Component_10_1" data-name="Component 10 – 1" transform="translate(1060.328 100.216)">
    <path id="CSS" d="M55.5,108.272q-7.248,3.078-18.967,2.195-15.36-1.157-24.2-11.144-4.43-5.007-6.647-11.4T3.478,73.76q0-8.274,2.492-14.775t7.471-11.219q9.928-9.406,25.694-8.018,9.722.856,16.369,3.968V58.543q-6.647-4.67-15.163-5.4-9.379-.8-15.153,4.79T19.4,73.953q0,9.982,5.459,16.338T39.506,97.35q8.75.68,16-3.143Zm8.47.453V93.491q4,3.787,8.673,5.888t9.423,2.465q2.784.216,4.859-.145t3.462-1.176q1.388-.816,2.071-2.017t.682-2.67q0-1.989-1.092-3.638T89.07,89.07q-1.891-1.479-4.49-2.92t-5.617-2.968q-7.691-3.95-11.475-9.063T63.7,62.191q0-5.332,2.068-8.987t5.621-5.816q3.55-2.161,8.216-2.915t9.855-.3q5.1.449,9.025,1.433t7.231,2.6V62.335q-1.63-1.32-3.556-2.383t-3.969-1.829q-2.044-.767-4.066-1.224t-3.844-.614q-2.505-.215-4.557.107t-3.468,1.1q-1.416.781-2.193,1.972t-.777,2.759q0,1.709.868,3.135t2.466,2.769q1.6,1.343,3.878,2.695t5.147,2.82q3.911,2.028,7.022,4.2t5.328,4.762q2.219,2.59,3.4,5.779t1.176,7.3q0,5.667-2.059,9.356t-5.6,5.81q-3.54,2.12-8.244,2.806t-9.957.292q-5.392-.406-10.268-1.724T63.974,108.725Zm52.268,3.973V97.608q3.921,3.749,8.511,5.826T134,105.869q2.732.212,4.768-.147t3.4-1.168q1.362-.809,2.032-2t.67-2.645q0-1.97-1.071-3.6t-2.926-3.1q-1.856-1.463-4.406-2.889t-5.512-2.936q-7.547-3.907-11.261-8.969T115.972,66.6q0-5.282,2.029-8.9t5.516-5.766q3.484-2.144,8.062-2.895t9.67-.3q5,.44,8.857,1.413t7.1,2.566v14q-1.6-1.307-3.49-2.357t-3.9-1.809q-2.006-.758-3.99-1.21t-3.773-.605q-2.458-.211-4.472.109t-3.4,1.095q-1.389.774-2.152,1.955t-.762,2.733q0,1.693.852,3.1t2.42,2.742q1.568,1.329,3.805,2.667t5.051,2.79q3.838,2.006,6.891,4.155t5.229,4.713q2.178,2.564,3.332,5.722T160,99.744q0,5.614-2.02,9.271t-5.491,5.759q-3.474,2.1-8.09,2.785t-9.771.3q-5.292-.4-10.076-1.7T116.242,112.7Z" fill="#29e"/>
    <g id="Line_1-4" data-name="Line 1" transform="translate(6.722 104.063)" fill="none">
      <path d="M.012.986,150.553,14.328" stroke="none"/>
      <path d="M 150.541748046875 15.28556632995605 L -0.0001466312678530812 1.969910621643066 L 0.02371412515640259 0.001831288216635585 L 150.5643615722656 13.37027168273926 L 150.541748046875 15.28556632995605 Z" stroke="none" fill="#29e"/>
    </g>
    <g id="Line_4-4" data-name="Line 4" transform="translate(6.734 71.066)" fill="none">
      <path d="M0,.985,150.541,13.3" stroke="none"/>
      <path d="M 150.541259765625 14.25445175170898 L 1.365429901171436e-14 1.970054388046265 L 1.365429901171436e-14 0 L 150.541259765625 12.33729076385498 L 150.541259765625 14.25445175170898 Z" stroke="none" fill="#29e"/>
    </g>
    <g id="Line_5-4" data-name="Line 5" transform="translate(6.734 88.304)" fill="none">
      <path d="M0,.985,150.541,12.833" stroke="none"/>
      <path d="M 150.541259765625 13.79163837432861 L 1.365429901171436e-14 1.970054388046265 L 1.365429901171436e-14 0 L 150.541259765625 11.87447738647461 L 150.541259765625 13.79163837432861 Z" stroke="none" fill="#29e"/>
    </g>
    <g id="Line_6-4" data-name="Line 6" transform="translate(6.734 54.32)" fill="none">
      <path d="M0,.985l150.541,12.76" stroke="none"/>
      <path d="M 150.541259765625 14.7040433883667 L 1.365429901171436e-14 1.970054388046265 L 1.365429901171436e-14 0 L 150.541259765625 12.7868824005127 L 150.541259765625 14.7040433883667 Z" stroke="none" fill="#29e"/>
    </g>
    <g id="Line_7-4" data-name="Line 7" transform="translate(6.728 36.097)" fill="none">
      <path d="M.006,1.971,150.548,14.235" stroke="none"/>
      <path d="M 0.01221779733896255 2.95606517791748 L 0.0002874185156542808 0.985003650188446 L 150.5418701171875 13.27614498138428 L 150.5531616210938 15.194260597229 L 0.01221779733896255 2.95606517791748 Z" stroke="none" fill="#29e"/>
    </g>
  </g>
</svg>
